<mxfile host="app.diagrams.net" agent="Mozilla/5.0 (Windows NT 10.0; Win64; x64) AppleWebKit/537.36 (KHTML, like Gecko) Chrome/131.0.0.0 Safari/537.36" version="26.0.6">
  <diagram name="Page-1" id="xb1x8g2PjKU-hLGdabT4">
    <mxGraphModel dx="724" dy="360" grid="0" gridSize="10" guides="1" tooltips="1" connect="1" arrows="1" fold="1" page="1" pageScale="1" pageWidth="827" pageHeight="1169" math="0" shadow="0">
      <root>
        <mxCell id="0" />
        <mxCell id="1" parent="0" />
        <mxCell id="IyBeB_psikn_7_9F4oAx-8" style="edgeStyle=orthogonalEdgeStyle;rounded=0;orthogonalLoop=1;jettySize=auto;html=1;entryX=0.75;entryY=0;entryDx=0;entryDy=0;curved=1;exitX=1;exitY=0.5;exitDx=0;exitDy=0;fillColor=#dae8fc;strokeColor=#0000CC;fontColor=#0000CC;" edge="1" parent="1" source="IyBeB_psikn_7_9F4oAx-1" target="IyBeB_psikn_7_9F4oAx-3">
          <mxGeometry relative="1" as="geometry" />
        </mxCell>
        <mxCell id="IyBeB_psikn_7_9F4oAx-1" value="𝑎 → (𝑎 ∨ 𝑏)" style="rounded=1;whiteSpace=wrap;html=1;" vertex="1" parent="1">
          <mxGeometry x="330" y="130" width="120" height="30" as="geometry" />
        </mxCell>
        <mxCell id="IyBeB_psikn_7_9F4oAx-10" style="edgeStyle=orthogonalEdgeStyle;rounded=0;orthogonalLoop=1;jettySize=auto;html=1;exitX=0.75;exitY=0;exitDx=0;exitDy=0;entryX=0.25;entryY=1;entryDx=0;entryDy=0;curved=1;fillColor=#e51400;strokeColor=light-dark(#ff0000, #ffacac);" edge="1" parent="1" source="IyBeB_psikn_7_9F4oAx-2" target="IyBeB_psikn_7_9F4oAx-1">
          <mxGeometry relative="1" as="geometry" />
        </mxCell>
        <mxCell id="IyBeB_psikn_7_9F4oAx-16" style="edgeStyle=orthogonalEdgeStyle;rounded=0;orthogonalLoop=1;jettySize=auto;html=1;exitX=1;exitY=0.75;exitDx=0;exitDy=0;entryX=0;entryY=0.75;entryDx=0;entryDy=0;strokeColor=light-dark(#ff0000, #ededed);" edge="1" parent="1" source="IyBeB_psikn_7_9F4oAx-2" target="IyBeB_psikn_7_9F4oAx-3">
          <mxGeometry relative="1" as="geometry" />
        </mxCell>
        <mxCell id="IyBeB_psikn_7_9F4oAx-18" style="edgeStyle=orthogonalEdgeStyle;rounded=0;orthogonalLoop=1;jettySize=auto;html=1;exitX=0.5;exitY=1;exitDx=0;exitDy=0;entryX=0;entryY=1;entryDx=0;entryDy=0;curved=1;strokeColor=#FF0000;" edge="1" parent="1" source="IyBeB_psikn_7_9F4oAx-2" target="IyBeB_psikn_7_9F4oAx-4">
          <mxGeometry relative="1" as="geometry">
            <Array as="points">
              <mxPoint x="270" y="310" />
            </Array>
          </mxGeometry>
        </mxCell>
        <mxCell id="IyBeB_psikn_7_9F4oAx-49" style="edgeStyle=orthogonalEdgeStyle;rounded=0;orthogonalLoop=1;jettySize=auto;html=1;exitX=0;exitY=0.5;exitDx=0;exitDy=0;entryX=0.25;entryY=1;entryDx=0;entryDy=0;curved=1;strokeColor=#FF0000;" edge="1" parent="1" source="IyBeB_psikn_7_9F4oAx-2" target="IyBeB_psikn_7_9F4oAx-5">
          <mxGeometry relative="1" as="geometry">
            <Array as="points">
              <mxPoint x="240" y="235" />
              <mxPoint x="240" y="390" />
              <mxPoint x="495" y="390" />
            </Array>
          </mxGeometry>
        </mxCell>
        <mxCell id="IyBeB_psikn_7_9F4oAx-2" value="⊥" style="rounded=1;whiteSpace=wrap;html=1;" vertex="1" parent="1">
          <mxGeometry x="250" y="220" width="40" height="30" as="geometry" />
        </mxCell>
        <mxCell id="IyBeB_psikn_7_9F4oAx-12" style="edgeStyle=orthogonalEdgeStyle;rounded=0;orthogonalLoop=1;jettySize=auto;html=1;exitX=0.25;exitY=0;exitDx=0;exitDy=0;entryX=0.75;entryY=1;entryDx=0;entryDy=0;curved=1;strokeColor=light-dark(#ff0000, #ededed);" edge="1" parent="1" source="IyBeB_psikn_7_9F4oAx-3" target="IyBeB_psikn_7_9F4oAx-1">
          <mxGeometry relative="1" as="geometry" />
        </mxCell>
        <mxCell id="IyBeB_psikn_7_9F4oAx-13" style="edgeStyle=orthogonalEdgeStyle;rounded=0;orthogonalLoop=1;jettySize=auto;html=1;exitX=0.25;exitY=1;exitDx=0;exitDy=0;curved=1;entryX=1;entryY=0.5;entryDx=0;entryDy=0;" edge="1" parent="1" source="IyBeB_psikn_7_9F4oAx-3" target="IyBeB_psikn_7_9F4oAx-4">
          <mxGeometry relative="1" as="geometry" />
        </mxCell>
        <mxCell id="IyBeB_psikn_7_9F4oAx-14" style="rounded=0;orthogonalLoop=1;jettySize=auto;html=1;exitX=0.75;exitY=1;exitDx=0;exitDy=0;entryX=0.5;entryY=0;entryDx=0;entryDy=0;" edge="1" parent="1" source="IyBeB_psikn_7_9F4oAx-3" target="IyBeB_psikn_7_9F4oAx-5">
          <mxGeometry relative="1" as="geometry" />
        </mxCell>
        <mxCell id="IyBeB_psikn_7_9F4oAx-15" style="edgeStyle=orthogonalEdgeStyle;rounded=0;orthogonalLoop=1;jettySize=auto;html=1;exitX=0;exitY=0.25;exitDx=0;exitDy=0;entryX=1;entryY=0.25;entryDx=0;entryDy=0;strokeColor=#0000CC;" edge="1" parent="1" source="IyBeB_psikn_7_9F4oAx-3" target="IyBeB_psikn_7_9F4oAx-2">
          <mxGeometry relative="1" as="geometry" />
        </mxCell>
        <mxCell id="IyBeB_psikn_7_9F4oAx-3" value="𝑎 ∨ 𝑏" style="rounded=1;whiteSpace=wrap;html=1;" vertex="1" parent="1">
          <mxGeometry x="460" y="220" width="60" height="30" as="geometry" />
        </mxCell>
        <mxCell id="IyBeB_psikn_7_9F4oAx-17" style="edgeStyle=orthogonalEdgeStyle;rounded=0;orthogonalLoop=1;jettySize=auto;html=1;exitX=0;exitY=0.5;exitDx=0;exitDy=0;entryX=0.75;entryY=1;entryDx=0;entryDy=0;curved=1;fillColor=#dae8fc;strokeColor=#0000CC;" edge="1" parent="1" source="IyBeB_psikn_7_9F4oAx-4" target="IyBeB_psikn_7_9F4oAx-2">
          <mxGeometry relative="1" as="geometry" />
        </mxCell>
        <mxCell id="IyBeB_psikn_7_9F4oAx-4" value="a" style="rounded=1;whiteSpace=wrap;html=1;" vertex="1" parent="1">
          <mxGeometry x="394" y="280" width="40" height="30" as="geometry" />
        </mxCell>
        <mxCell id="IyBeB_psikn_7_9F4oAx-50" style="edgeStyle=orthogonalEdgeStyle;rounded=0;orthogonalLoop=1;jettySize=auto;html=1;exitX=0.75;exitY=1;exitDx=0;exitDy=0;entryX=0;entryY=0.25;entryDx=0;entryDy=0;curved=1;fillColor=#dae8fc;strokeColor=#0000CC;" edge="1" parent="1" source="IyBeB_psikn_7_9F4oAx-5" target="IyBeB_psikn_7_9F4oAx-2">
          <mxGeometry relative="1" as="geometry">
            <Array as="points">
              <mxPoint x="515" y="400" />
              <mxPoint x="230" y="400" />
              <mxPoint x="230" y="228" />
            </Array>
          </mxGeometry>
        </mxCell>
        <mxCell id="IyBeB_psikn_7_9F4oAx-5" value="b" style="rounded=1;whiteSpace=wrap;html=1;" vertex="1" parent="1">
          <mxGeometry x="485" y="330" width="40" height="30" as="geometry" />
        </mxCell>
        <mxCell id="IyBeB_psikn_7_9F4oAx-11" style="edgeStyle=orthogonalEdgeStyle;rounded=0;orthogonalLoop=1;jettySize=auto;html=1;entryX=0.25;entryY=0;entryDx=0;entryDy=0;curved=1;strokeColor=#0000CC;" edge="1" parent="1" source="IyBeB_psikn_7_9F4oAx-1" target="IyBeB_psikn_7_9F4oAx-2">
          <mxGeometry relative="1" as="geometry">
            <Array as="points">
              <mxPoint x="260" y="145" />
            </Array>
          </mxGeometry>
        </mxCell>
        <mxCell id="IyBeB_psikn_7_9F4oAx-34" value="&lt;font style=&quot;&quot;&gt;¬(𝑎 ∨ 𝑏)&lt;/font&gt;" style="text;html=1;align=center;verticalAlign=middle;whiteSpace=wrap;rounded=0;fontColor=#000000;" vertex="1" parent="1">
          <mxGeometry x="354" y="200" width="60" height="30" as="geometry" />
        </mxCell>
        <mxCell id="IyBeB_psikn_7_9F4oAx-35" value="&lt;span style=&quot;font-family: Helvetica; font-size: 12px; font-style: normal; font-variant-ligatures: normal; font-variant-caps: normal; font-weight: 400; letter-spacing: normal; orphans: 2; text-align: center; text-indent: 0px; text-transform: none; widows: 2; word-spacing: 0px; -webkit-text-stroke-width: 0px; white-space: normal; background-color: rgb(251, 251, 251); text-decoration-thickness: initial; text-decoration-style: initial; text-decoration-color: initial; float: none; display: inline !important;&quot;&gt;&lt;font style=&quot;&quot;&gt;¬(𝑎 ∨ 𝑏)&lt;/font&gt;&lt;/span&gt;" style="text;whiteSpace=wrap;html=1;fontColor=#000000;" vertex="1" parent="1">
          <mxGeometry x="360" y="240" width="80" height="40" as="geometry" />
        </mxCell>
        <mxCell id="IyBeB_psikn_7_9F4oAx-36" value="&lt;div style=&quot;text-align: center;&quot;&gt;&lt;span style=&quot;background-color: transparent;&quot;&gt;&lt;font style=&quot;&quot;&gt;a&lt;/font&gt;&lt;/span&gt;&lt;/div&gt;" style="text;whiteSpace=wrap;html=1;fontColor=#000000;" vertex="1" parent="1">
          <mxGeometry x="500" y="150" width="30" height="30" as="geometry" />
        </mxCell>
        <mxCell id="IyBeB_psikn_7_9F4oAx-37" value="&lt;div style=&quot;text-align: center;&quot;&gt;&lt;span style=&quot;background-color: transparent;&quot;&gt;a&lt;/span&gt;&lt;/div&gt;" style="text;whiteSpace=wrap;html=1;fillColor=none;fontColor=#000000;" vertex="1" parent="1">
          <mxGeometry x="450" y="170" width="30" height="30" as="geometry" />
        </mxCell>
        <mxCell id="IyBeB_psikn_7_9F4oAx-38" value="&lt;div style=&quot;text-align: center;&quot;&gt;&lt;font style=&quot;&quot;&gt;&lt;span style=&quot;background-color: transparent;&quot;&gt;¬&lt;/span&gt;&lt;span style=&quot;background-color: transparent;&quot;&gt;(&lt;/span&gt;&lt;span style=&quot;background-color: transparent;&quot;&gt;𝑎 → (𝑎 ∨ 𝑏)&lt;/span&gt;&lt;span style=&quot;background-color: transparent;&quot;&gt;)&lt;/span&gt;&lt;/font&gt;&lt;/div&gt;" style="text;whiteSpace=wrap;html=1;fontColor=#000000;" vertex="1" parent="1">
          <mxGeometry x="200" y="140" width="90" height="30" as="geometry" />
        </mxCell>
        <mxCell id="IyBeB_psikn_7_9F4oAx-39" value="&lt;div style=&quot;text-align: center;&quot;&gt;&lt;font style=&quot;&quot;&gt;&lt;span style=&quot;background-color: transparent;&quot;&gt;¬&lt;/span&gt;&lt;span style=&quot;background-color: transparent;&quot;&gt;(&lt;/span&gt;&lt;span style=&quot;background-color: transparent;&quot;&gt;𝑎 → (𝑎 ∨ 𝑏)&lt;/span&gt;&lt;span style=&quot;background-color: transparent;&quot;&gt;)&lt;/span&gt;&lt;/font&gt;&lt;/div&gt;" style="text;whiteSpace=wrap;html=1;fontColor=#000000;" vertex="1" parent="1">
          <mxGeometry x="270" y="160" width="90" height="30" as="geometry" />
        </mxCell>
        <mxCell id="IyBeB_psikn_7_9F4oAx-40" value="&lt;span style=&quot;font-family: Helvetica; font-size: 12px; font-style: normal; font-variant-ligatures: normal; font-variant-caps: normal; font-weight: 400; letter-spacing: normal; orphans: 2; text-align: center; text-indent: 0px; text-transform: none; widows: 2; word-spacing: 0px; -webkit-text-stroke-width: 0px; white-space: normal; background-color: rgb(251, 251, 251); text-decoration-thickness: initial; text-decoration-style: initial; text-decoration-color: initial; float: none; display: inline !important;&quot;&gt;&lt;font style=&quot;&quot;&gt;¬(𝑎)&lt;/font&gt;&lt;/span&gt;" style="text;whiteSpace=wrap;html=1;fontColor=#000000;" vertex="1" parent="1">
          <mxGeometry x="320" y="265" width="80" height="40" as="geometry" />
        </mxCell>
        <mxCell id="IyBeB_psikn_7_9F4oAx-41" value="&lt;span style=&quot;font-family: Helvetica; font-size: 12px; font-style: normal; font-variant-ligatures: normal; font-variant-caps: normal; font-weight: 400; letter-spacing: normal; orphans: 2; text-align: center; text-indent: 0px; text-transform: none; widows: 2; word-spacing: 0px; -webkit-text-stroke-width: 0px; white-space: normal; background-color: rgb(251, 251, 251); text-decoration-thickness: initial; text-decoration-style: initial; text-decoration-color: initial; float: none; display: inline !important;&quot;&gt;&lt;font style=&quot;&quot;&gt;¬(𝑎)&lt;/font&gt;&lt;/span&gt;" style="text;whiteSpace=wrap;html=1;fontColor=#000000;" vertex="1" parent="1">
          <mxGeometry x="313" y="301" width="80" height="40" as="geometry" />
        </mxCell>
        <mxCell id="IyBeB_psikn_7_9F4oAx-46" value="&lt;span style=&quot;font-family: Helvetica; font-size: 12px; font-style: normal; font-variant-ligatures: normal; font-variant-caps: normal; font-weight: 400; letter-spacing: normal; orphans: 2; text-align: center; text-indent: 0px; text-transform: none; widows: 2; word-spacing: 0px; -webkit-text-stroke-width: 0px; white-space: normal; background-color: rgb(251, 251, 251); text-decoration-thickness: initial; text-decoration-style: initial; text-decoration-color: initial; float: none; display: inline !important;&quot;&gt;&lt;font style=&quot;&quot;&gt;¬(𝑏)&lt;/font&gt;&lt;/span&gt;" style="text;whiteSpace=wrap;html=1;fontColor=#000000;" vertex="1" parent="1">
          <mxGeometry x="334" y="366" width="80" height="40" as="geometry" />
        </mxCell>
        <mxCell id="IyBeB_psikn_7_9F4oAx-51" value="&lt;span style=&quot;font-family: Helvetica; font-size: 12px; font-style: normal; font-variant-ligatures: normal; font-variant-caps: normal; font-weight: 400; letter-spacing: normal; orphans: 2; text-align: center; text-indent: 0px; text-transform: none; widows: 2; word-spacing: 0px; -webkit-text-stroke-width: 0px; white-space: normal; background-color: rgb(251, 251, 251); text-decoration-thickness: initial; text-decoration-style: initial; text-decoration-color: initial; float: none; display: inline !important;&quot;&gt;&lt;font style=&quot;&quot;&gt;¬(𝑏)&lt;/font&gt;&lt;/span&gt;" style="text;whiteSpace=wrap;html=1;fontColor=#000000;" vertex="1" parent="1">
          <mxGeometry x="350" y="400" width="80" height="40" as="geometry" />
        </mxCell>
      </root>
    </mxGraphModel>
  </diagram>
</mxfile>
